<?xml version="1.0" standalone="no"?>
<!DOCTYPE svg PUBLIC "-//W3C//DTD SVG 20010904//EN"
 "http://www.w3.org/TR/2001/REC-SVG-20010904/DTD/svg10.dtd">
<svg version="1.0" xmlns="http://www.w3.org/2000/svg"
 width="115.200000pt" height="115.200000pt" viewBox="0 0 115.200000 115.200000"
 preserveAspectRatio="xMidYMid meet">
<metadata>
Created by potrace 1.16, written by Peter Selinger 2001-2019
</metadata>
<g transform="translate(0.000000,115.200000) scale(0.040000,-0.040000)"
fill="#000000" stroke="none">
<path d="M0 1440 l0 -1440 1440 0 1440 0 0 1440 0 1440 -1440 0 -1440 0 0
-1440z m2299 416 c-2 -2 -60 -44 -129 -94 -69 -50 -180 -132 -248 -182 -67
-49 -125 -90 -127 -90 -3 0 11 21 30 46 20 26 43 60 51 77 9 16 35 60 59 97
l43 67 83 6 c71 5 94 11 159 45 41 22 77 38 79 36 2 -2 2 -6 0 -8z m-1199 -89
c47 -25 86 -69 76 -85 -3 -6 -46 -40 -96 -76 -75 -55 -88 -61 -80 -40 14 37
12 52 -10 74 -53 53 -192 -9 -159 -71 4 -9 31 -26 59 -38 27 -12 50 -23 50
-25 0 -11 -142 -106 -157 -106 -24 1 -91 48 -117 83 -31 42 -28 123 7 175 59
89 152 131 293 132 76 0 98 -4 134 -23z m570 9 c0 -2 -31 -57 -69 -121 -67
-115 -70 -117 -177 -197 -60 -44 -129 -94 -154 -111 -42 -29 -41 -27 20 34 50
50 87 103 160 232 l95 167 63 0 c34 0 62 -2 62 -4z m507 -241 c12 -93 25 -175
27 -181 3 -7 17 -14 33 -16 24 -3 14 -12 -97 -93 -157 -114 -154 -113 -130
-73 35 57 31 59 -87 56 l-107 -3 -36 -62 -35 -63 -92 0 c-51 0 -93 2 -93 4 0
2 27 48 60 102 35 57 56 102 51 107 -5 5 -28 0 -55 -11 -25 -12 -46 -18 -45
-14 0 4 64 53 142 110 78 57 205 150 282 207 77 57 144 103 150 101 5 -1 20
-78 32 -171z m-654 -57 c-45 -47 -88 -111 -168 -250 l-107 -188 -59 0 c-33 0
-59 3 -59 8 0 4 35 69 78 144 78 137 79 138 171 205 141 103 196 142 201 143
2 0 -23 -28 -57 -62z m-459 -39 c103 -90 50 -252 -104 -322 -36 -17 -66 -21
-155 -21 -103 -1 -113 1 -162 28 -51 28 -62 29 -120 11 -48 -15 -19 16 86 94
61 45 112 81 114 81 3 0 8 -15 11 -33 4 -23 15 -38 32 -45 57 -26 149 -2 160
42 10 42 0 60 -46 84 -25 12 -46 26 -47 30 -1 4 30 30 70 58 69 50 73 51 99
38 15 -8 43 -28 62 -45z m1170 -185 c-14 -32 -13 -57 2 -131 4 -21 1 -21 -104
-25 -97 -3 -113 -6 -169 -35 -35 -17 -63 -30 -63 -28 0 6 337 255 346 255 1 0
-4 -16 -12 -36z"/>
</g>
</svg>
